<svg width="14" height="12" viewBox="0 0 14 12" fill="none" xmlns="http://www.w3.org/2000/svg">
<path d="M1.49563 12C1.08188 12 0.729167 11.8527 0.4375 11.5581C0.145833 11.2635 0 10.9094 0 10.4956C0 10.0819 0.147292 9.72917 0.441875 9.4375C0.736458 9.14583 1.09062 9 1.50437 9C1.91812 9 2.27083 9.14729 2.5625 9.44188C2.85417 9.73646 3 10.0906 3 10.5044C3 10.9181 2.85271 11.2708 2.55813 11.5625C2.26354 11.8542 1.90938 12 1.49563 12ZM1.49563 7.5C1.08188 7.5 0.729167 7.35271 0.4375 7.05813C0.145833 6.76354 0 6.40938 0 5.99563C0 5.58188 0.147292 5.22917 0.441875 4.9375C0.736458 4.64583 1.09062 4.5 1.50437 4.5C1.91812 4.5 2.27083 4.64729 2.5625 4.94188C2.85417 5.23646 3 5.59062 3 6.00437C3 6.41813 2.85271 6.77083 2.55813 7.0625C2.26354 7.35417 1.90938 7.5 1.49563 7.5ZM1.49563 3C1.08188 3 0.729167 2.85271 0.4375 2.55812C0.145833 2.26354 0 1.90937 0 1.49562C0 1.08187 0.147292 0.729167 0.441875 0.4375C0.736458 0.145833 1.09062 0 1.50437 0C1.91812 0 2.27083 0.147292 2.5625 0.441875C2.85417 0.736459 3 1.09063 3 1.50438C3 1.91813 2.85271 2.27083 2.55813 2.5625C2.26354 2.85417 1.90938 3 1.49563 3ZM5.99563 3C5.58188 3 5.22917 2.85271 4.9375 2.55812C4.64583 2.26354 4.5 1.90937 4.5 1.49562C4.5 1.08187 4.64729 0.729167 4.94187 0.4375C5.23646 0.145833 5.59062 0 6.00437 0C6.41813 0 6.77083 0.147292 7.0625 0.441875C7.35417 0.736459 7.5 1.09063 7.5 1.50438C7.5 1.91813 7.35271 2.27083 7.05812 2.5625C6.76354 2.85417 6.40938 3 5.99563 3ZM10.4956 3C10.0819 3 9.72917 2.85271 9.4375 2.55812C9.14583 2.26354 9 1.90937 9 1.49562C9 1.08187 9.14729 0.729167 9.44188 0.4375C9.73646 0.145833 10.0906 0 10.5044 0C10.9181 0 11.2708 0.147292 11.5625 0.441875C11.8542 0.736459 12 1.09063 12 1.50438C12 1.91813 11.8527 2.27083 11.5581 2.5625C11.2635 2.85417 10.9094 3 10.4956 3ZM5.99563 7.5C5.58188 7.5 5.22917 7.35271 4.9375 7.05813C4.64583 6.76354 4.5 6.40938 4.5 5.99563C4.5 5.58188 4.64729 5.22917 4.94187 4.9375C5.23646 4.64583 5.59062 4.5 6.00437 4.5C6.41813 4.5 6.77083 4.64729 7.0625 4.94188C7.35417 5.23646 7.5 5.59062 7.5 6.00437C7.5 6.41813 7.35271 6.77083 7.05812 7.0625C6.76354 7.35417 6.40938 7.5 5.99563 7.5ZM7 11.25V9.94938C7 9.84424 7.02083 9.74653 7.0625 9.65625C7.10417 9.56597 7.15972 9.48611 7.22917 9.41667L11.375 5.29167C11.4758 5.18875 11.5878 5.11437 11.711 5.06854C11.8342 5.02285 11.9567 5 12.0783 5C12.211 5 12.3381 5.02431 12.4598 5.07292C12.5815 5.12153 12.6921 5.19444 12.7917 5.29167L13.7083 6.22917C13.7999 6.33 13.8713 6.44201 13.9227 6.56521C13.9742 6.6884 14 6.81083 14 6.9325C14 7.05417 13.9772 7.17861 13.9315 7.30583C13.8856 7.43292 13.8113 7.54625 13.7083 7.64583L9.58333 11.7708C9.51389 11.8403 9.43403 11.8958 9.34375 11.9375C9.25347 11.9792 9.15576 12 9.05062 12H7.75C7.5375 12 7.35937 11.9281 7.21562 11.7844C7.07187 11.6406 7 11.4625 7 11.25ZM8 11H8.9375L11.3333 8.60417L10.875 8.125L10.4167 7.66667L8 10.0625V11ZM10.875 8.125L10.4167 7.66667L11.3333 8.60417L10.875 8.125Z" fill="#1F1F1F"/>
</svg>
