<svg width="17" height="18" viewBox="0 0 17 18" fill="none" xmlns="http://www.w3.org/2000/svg">
<path d="M0.666016 0.666016H12.3327C13.9043 0.666016 14.6893 0.666016 15.1777 1.15435C15.666 1.64268 15.666 2.42768 15.666 3.99935V8.99935C15.666 10.571 15.666 11.356 15.1777 11.8443C14.6893 12.3327 13.9043 12.3327 12.3327 12.3327H6.49935M7.33268 4.41602H12.3327M0.666016 13.166V9.83268C0.666016 9.04685 0.666016 8.65435 0.910182 8.41018C1.15435 8.16602 1.54685 8.16602 2.33268 8.16602H3.99935M0.666016 13.166H3.99935M0.666016 13.166V17.3327M3.99935 8.16602V13.166M3.99935 8.16602H8.99935M3.99935 13.166V17.3327M3.99935 4.41602C3.99935 4.85804 3.82375 5.28197 3.51119 5.59453C3.19863 5.90709 2.77471 6.08268 2.33268 6.08268C1.89065 6.08268 1.46673 5.90709 1.15417 5.59453C0.84161 5.28197 0.666016 4.85804 0.666016 4.41602C0.666016 3.97399 0.84161 3.55007 1.15417 3.2375C1.46673 2.92494 1.89065 2.74935 2.33268 2.74935C2.77471 2.74935 3.19863 2.92494 3.51119 3.2375C3.82375 3.55007 3.99935 3.97399 3.99935 4.41602Z" stroke="#070D17" stroke-linecap="round" stroke-linejoin="round"/>
</svg>
