<svg width="94" height="75" viewBox="0 0 94 75" fill="none" xmlns="http://www.w3.org/2000/svg">
<path d="M54.7788 27.5228C49.052 27.557 43.2365 27.2905 37.7968 25.7802C32.3571 24.27 27.5461 21.4203 23.1725 18.0922C20.3092 15.9259 17.7055 14.2038 13.9879 14.4635C10.353 14.6545 6.87624 16.0107 4.07208 18.3314C-0.656896 22.4727 0.0606523 30.1265 1.94678 35.5115C4.78963 43.6232 13.4412 49.2543 20.7875 52.924C29.2819 57.1678 38.61 59.6348 47.9655 61.0494C56.166 62.2931 66.6969 63.202 73.7972 57.8443C80.3234 52.9308 82.1139 41.6961 80.5148 34.1106C80.1256 31.8701 78.9326 29.8486 77.1594 28.4249C72.5739 25.0763 65.7401 27.311 60.5875 27.4272C58.7082 27.4682 56.7332 27.516 54.7788 27.5228Z" fill="#F2F2F2"/>
<path d="M26.8555 1V3.93853" stroke="#CFCFCF" stroke-width="0.697046" stroke-linecap="round" stroke-linejoin="round"/>
<path d="M25.3867 2.46875H28.3252" stroke="#CFCFCF" stroke-width="0.697046" stroke-linecap="round" stroke-linejoin="round"/>
<path d="M82.6055 59.5742V62.5127" stroke="#CFCFCF" stroke-width="0.697046" stroke-linecap="round" stroke-linejoin="round"/>
<path d="M81.1367 61.043H84.0752" stroke="#CFCFCF" stroke-width="0.697046" stroke-linecap="round" stroke-linejoin="round"/>
<path d="M4.65409 46.8824C5.02396 46.8824 5.3238 46.5825 5.3238 46.2127C5.3238 45.8428 5.02396 45.543 4.65409 45.543C4.28421 45.543 3.98438 45.8428 3.98438 46.2127C3.98438 46.5825 4.28421 46.8824 4.65409 46.8824Z" fill="#CFCFCF"/>
<path d="M61.6736 4.03473C62.0435 4.03473 62.3433 3.7349 62.3433 3.36502C62.3433 2.99515 62.0435 2.69531 61.6736 2.69531C61.3037 2.69531 61.0039 2.99515 61.0039 3.36502C61.0039 3.7349 61.3037 4.03473 61.6736 4.03473Z" fill="#CFCFCF"/>
<path d="M43.1112 74.335C56.9625 74.335 68.1912 73.6374 68.1912 72.7769C68.1912 71.9163 56.9625 71.2188 43.1112 71.2188C29.2599 71.2188 18.0312 71.9163 18.0312 72.7769C18.0312 73.6374 29.2599 74.335 43.1112 74.335Z" fill="#F2F2F2"/>
<path d="M23.7914 8.98047H60.2155C61.1217 8.98047 61.9908 9.34046 62.6316 9.98125C63.2724 10.622 63.6324 11.4911 63.6324 12.3974V55.7304C63.6324 56.6366 63.2724 57.5057 62.6316 58.1465C61.9908 58.7873 61.1217 59.1473 60.2155 59.1473H19.1239C18.2177 59.1473 17.3486 58.7873 16.7078 58.1465C16.067 57.5057 15.707 56.6366 15.707 55.7304V17.1468L23.7914 8.98047Z" fill="white" stroke="#BABABA" stroke-width="0.820054" stroke-linecap="round" stroke-linejoin="round"/>
<path d="M63.4686 30.0977H25.9102V59.5649H63.4686V30.0977Z" fill="#D2D2D2"/>
<path d="M15.707 17.1468H22.329C22.7175 17.145 23.0894 16.9894 23.3635 16.7141C23.6375 16.4387 23.7914 16.0661 23.7914 15.6776V8.98047L15.707 17.1468Z" fill="white" stroke="#BABABA" stroke-width="0.820054" stroke-linecap="round" stroke-linejoin="round"/>
<path d="M63.2853 20.6875H26.1369C24.6914 20.6875 23.5195 21.8593 23.5195 23.3048V31.2525C23.5195 32.698 24.6914 33.8699 26.1369 33.8699H63.2853C64.7308 33.8699 65.9027 32.698 65.9027 31.2525V23.3048C65.9027 21.8593 64.7308 20.6875 63.2853 20.6875Z" fill="white" stroke="#BABABA" stroke-width="0.820054" stroke-linecap="round" stroke-linejoin="round"/>
<path d="M30.7356 29.5806C31.9962 29.5806 33.0181 28.5587 33.0181 27.2981C33.0181 26.0375 31.9962 25.0156 30.7356 25.0156C29.475 25.0156 28.4531 26.0375 28.4531 27.2981C28.4531 28.5587 29.475 29.5806 30.7356 29.5806Z" fill="#D2D2D2"/>
<path d="M37.9114 29.5806C39.172 29.5806 40.1939 28.5587 40.1939 27.2981C40.1939 26.0375 39.172 25.0156 37.9114 25.0156C36.6508 25.0156 35.6289 26.0375 35.6289 27.2981C35.6289 28.5587 36.6508 29.5806 37.9114 29.5806Z" fill="#D2D2D2"/>
<path d="M45.0794 29.5806C46.3399 29.5806 47.3618 28.5587 47.3618 27.2981C47.3618 26.0375 46.3399 25.0156 45.0794 25.0156C43.8188 25.0156 42.7969 26.0375 42.7969 27.2981C42.7969 28.5587 43.8188 29.5806 45.0794 29.5806Z" fill="#D2D2D2"/>
<path d="M63.2853 35.2969H26.1369C24.6914 35.2969 23.5195 36.4687 23.5195 37.9142V45.8619C23.5195 47.3074 24.6914 48.4792 26.1369 48.4792H63.2853C64.7308 48.4792 65.9027 47.3074 65.9027 45.8619V37.9142C65.9027 36.4687 64.7308 35.2969 63.2853 35.2969Z" fill="white" stroke="#BABABA" stroke-width="0.820054" stroke-linecap="round" stroke-linejoin="round"/>
<path d="M30.7356 44.1978C31.9962 44.1978 33.0181 43.1759 33.0181 41.9153C33.0181 40.6547 31.9962 39.6328 30.7356 39.6328C29.475 39.6328 28.4531 40.6547 28.4531 41.9153C28.4531 43.1759 29.475 44.1978 30.7356 44.1978Z" fill="#D2D2D2"/>
<path d="M37.9114 44.1978C39.172 44.1978 40.1939 43.1759 40.1939 41.9153C40.1939 40.6547 39.172 39.6328 37.9114 39.6328C36.6508 39.6328 35.6289 40.6547 35.6289 41.9153C35.6289 43.1759 36.6508 44.1978 37.9114 44.1978Z" fill="#D2D2D2"/>
<path d="M45.0794 44.1978C46.3399 44.1978 47.3618 43.1759 47.3618 41.9153C47.3618 40.6547 46.3399 39.6328 45.0794 39.6328C43.8188 39.6328 42.7969 40.6547 42.7969 41.9153C42.7969 43.1759 43.8188 44.1978 45.0794 44.1978Z" fill="#D2D2D2"/>
<path d="M63.2853 49.918H26.1369C24.6914 49.918 23.5195 51.0898 23.5195 52.5353V60.483C23.5195 61.9285 24.6914 63.1003 26.1369 63.1003H63.2853C64.7308 63.1003 65.9027 61.9285 65.9027 60.483V52.5353C65.9027 51.0898 64.7308 49.918 63.2853 49.918Z" fill="white" stroke="#BABABA" stroke-width="0.820054" stroke-linecap="round" stroke-linejoin="round"/>
<path d="M30.7356 58.8072C31.9962 58.8072 33.0181 57.7853 33.0181 56.5247C33.0181 55.2641 31.9962 54.2422 30.7356 54.2422C29.475 54.2422 28.4531 55.2641 28.4531 56.5247C28.4531 57.7853 29.475 58.8072 30.7356 58.8072Z" fill="#D2D2D2"/>
<path d="M37.9114 58.8072C39.172 58.8072 40.1939 57.7853 40.1939 56.5247C40.1939 55.2641 39.172 54.2422 37.9114 54.2422C36.6508 54.2422 35.6289 55.2641 35.6289 56.5247C35.6289 57.7853 36.6508 58.8072 37.9114 58.8072Z" fill="#D2D2D2"/>
<path d="M45.0794 58.8072C46.3399 58.8072 47.3618 57.7853 47.3618 56.5247C47.3618 55.2641 46.3399 54.2422 45.0794 54.2422C43.8188 54.2422 42.7969 55.2641 42.7969 56.5247C42.7969 57.7853 43.8188 58.8072 45.0794 58.8072Z" fill="#D2D2D2"/>
<path d="M66.6469 37.3368C74.4708 37.3368 80.8133 30.9942 80.8133 23.1703C80.8133 15.3464 74.4708 9.00391 66.6469 9.00391C58.823 9.00391 52.4805 15.3464 52.4805 23.1703C52.4805 30.9942 58.823 37.3368 66.6469 37.3368Z" fill="white" stroke="#BABABA" stroke-width="0.820054" stroke-linecap="round" stroke-linejoin="round"/>
<path d="M76.707 33.4453L80.4793 37.2176" stroke="#BABABA" stroke-width="0.820054" stroke-linecap="round" stroke-linejoin="round"/>
<path d="M80.0586 35.3865L78.8875 36.6115C78.3607 37.1626 78.3803 38.0364 78.9314 38.5633L89.1074 48.291C89.6585 48.8178 90.5323 48.7981 91.0591 48.2471L92.2302 47.022C92.757 46.4709 92.7373 45.5971 92.1862 45.0703L82.0103 35.3425C81.4592 34.8157 80.5854 34.8354 80.0586 35.3865Z" fill="white" stroke="#BABABA" stroke-width="0.820054" stroke-linecap="round" stroke-linejoin="round"/>
</svg>
