<svg width="16" height="16" viewBox="0 0 16 16" fill="none" xmlns="http://www.w3.org/2000/svg">
<path d="M8.00026 11.3333H8.00776M5.55192 2.02167L0.699425 6.2675C0.282758 6.63167 0.562758 7.27833 1.13526 7.27833C1.48526 7.27833 1.76942 7.54083 1.76942 7.86417V10.5675C1.76942 12.8925 1.76942 14.055 2.55192 14.7775C3.33359 15.5 4.59192 15.5 7.11026 15.5H8.89026C11.4078 15.5 12.6669 15.5 13.4486 14.7775C14.2311 14.055 14.2311 12.8925 14.2311 10.5675V7.86417C14.2311 7.54083 14.5144 7.27833 14.8644 7.27833C15.4378 7.27833 15.7169 6.63167 15.3011 6.2675L10.4486 2.02167C9.28942 1.00833 8.70942 0.5 8.00026 0.5C7.29109 0.5 6.71109 1.0075 5.55192 2.02167Z" stroke="#262B3A" stroke-width="0.75" stroke-linecap="round" stroke-linejoin="round"/>
</svg>
