<svg width="24" height="24" viewBox="0 0 24 24" fill="none" xmlns="http://www.w3.org/2000/svg">
<path d="M20.0039 11V10C20.0039 6.229 20.0039 4.343 18.7639 3.172C17.5219 2 15.5259 2 11.5339 2H10.4739C6.48091 2 4.48391 2 3.24391 3.172C2.00391 4.344 2.00391 6.229 2.00391 10V14C2.00391 17.771 2.00391 19.657 3.24391 20.828C4.48391 21.999 6.48191 22 10.4739 22H11.0039M7.00391 7H15.0039M7.00391 12H15.0039M20.8639 14.44L21.5589 15.132C21.6985 15.2711 21.8093 15.4364 21.8848 15.6183C21.9604 15.8003 21.9993 15.9954 21.9993 16.1925C21.9993 16.3896 21.9604 16.5847 21.8848 16.7667C21.8093 16.9486 21.6985 17.1139 21.5589 17.253L17.9209 20.949C17.6347 21.2346 17.2686 21.4267 16.8709 21.5L14.6169 21.988C14.5351 22.0061 14.4501 22.0034 14.3696 21.9801C14.2892 21.9568 14.2159 21.9136 14.1564 21.8546C14.097 21.7955 14.0534 21.7225 14.0295 21.6422C14.0056 21.5619 14.0023 21.4769 14.0199 21.395L14.4999 19.16C14.5739 18.763 14.7669 18.398 15.0539 18.113L18.7369 14.439C19.0194 14.1577 19.4018 13.9997 19.8004 13.9997C20.1991 13.9997 20.5815 14.1587 20.8639 14.44Z" stroke="#262B3A" stroke-width="0.75" stroke-linecap="round" stroke-linejoin="round"/>
</svg>
