<svg width="20" height="20" viewBox="0 0 20 20" fill="none" xmlns="http://www.w3.org/2000/svg">
<path d="M1.66602 15.0013C1.66602 13.718 1.66602 13.0763 1.95518 12.6046C2.11685 12.3405 2.33852 12.1188 2.60268 11.9571C3.07352 11.668 3.71602 11.668 4.99935 11.668C6.28268 11.668 6.92435 11.668 7.39602 11.9571C7.66018 12.1188 7.88185 12.3405 8.04352 12.6046C8.33268 13.0755 8.33268 13.718 8.33268 15.0013C8.33268 16.2846 8.33268 16.9263 8.04352 17.3988C7.88185 17.6621 7.66018 17.8838 7.39602 18.0455C6.92518 18.3346 6.28268 18.3346 4.99935 18.3346C3.71602 18.3346 3.07435 18.3346 2.60268 18.0455C2.33881 17.8841 2.11692 17.6625 1.95518 17.3988C1.66602 16.9263 1.66602 16.2846 1.66602 15.0013ZM11.666 15.0013C11.666 13.718 11.666 13.0763 11.9552 12.6046C12.1168 12.3405 12.3385 12.1188 12.6027 11.9571C13.0735 11.668 13.716 11.668 14.9993 11.668C16.2827 11.668 16.9244 11.668 17.3969 11.9571C17.6602 12.1188 17.8818 12.3405 18.0435 12.6046C18.3327 13.0755 18.3327 13.718 18.3327 15.0013C18.3327 16.2846 18.3327 16.9263 18.0435 17.3988C17.8818 17.6622 17.6602 17.8837 17.3969 18.0455C16.9244 18.3346 16.2827 18.3346 14.9993 18.3346C13.716 18.3346 13.0743 18.3346 12.6027 18.0455C12.3388 17.8841 12.1169 17.6625 11.9552 17.3988C11.666 16.9263 11.666 16.2846 11.666 15.0013ZM1.66602 5.0013C1.66602 3.71797 1.66602 3.0763 1.95518 2.60464C2.11685 2.34047 2.33852 2.1188 2.60268 1.95714C3.07352 1.66797 3.71602 1.66797 4.99935 1.66797C6.28268 1.66797 6.92435 1.66797 7.39602 1.95714C7.66018 2.1188 7.88185 2.34047 8.04352 2.60464C8.33268 3.07547 8.33268 3.71797 8.33268 5.0013C8.33268 6.28464 8.33268 6.9263 8.04352 7.39797C7.88185 7.66214 7.66018 7.8838 7.39602 8.04547C6.92518 8.33464 6.28268 8.33464 4.99935 8.33464C3.71602 8.33464 3.07435 8.33464 2.60268 8.04547C2.33871 7.88384 2.11681 7.66194 1.95518 7.39797C1.66602 6.92714 1.66602 6.28464 1.66602 5.0013ZM11.666 5.0013C11.666 3.71797 11.666 3.0763 11.9552 2.60464C12.1168 2.34047 12.3385 2.1188 12.6027 1.95714C13.0735 1.66797 13.716 1.66797 14.9993 1.66797C16.2827 1.66797 16.9244 1.66797 17.3969 1.95714C17.6602 2.1188 17.8818 2.34047 18.0435 2.60464C18.3327 3.07547 18.3327 3.71797 18.3327 5.0013C18.3327 6.28464 18.3327 6.9263 18.0435 7.39797C17.8818 7.66214 17.6602 7.8838 17.3969 8.04547C16.9244 8.33464 16.2827 8.33464 14.9993 8.33464C13.716 8.33464 13.0743 8.33464 12.6027 8.04547C12.3387 7.88384 12.1168 7.66194 11.9552 7.39797C11.666 6.92714 11.666 6.28464 11.666 5.0013Z" stroke="white" stroke-width="0.75" stroke-linecap="round" stroke-linejoin="round"/>
</svg>
