<svg width="50" height="63" viewBox="0 0 50 63" fill="none" xmlns="http://www.w3.org/2000/svg">
<circle cx="25.0507" cy="24.4677" r="24.2421" fill="#F1F1F1"/>
<rect x="15.5427" y="23.9746" width="23.7335" height="33.2269" rx="2.37335" transform="rotate(2.5 15.5427 23.9746)" fill="#EEEEEE" stroke="#999999" stroke-width="0.6781"/>
<rect x="1.4321" y="21.9884" width="25.0897" height="34.5831" rx="3.05145" transform="rotate(-7.5 1.4321 21.9884)" fill="#FAFAFA" stroke="#999999" stroke-width="0.6781"/>
<path d="M2.16654 24.9695C1.97101 23.4843 3.01649 22.1218 4.5017 21.9262L23.3261 19.448C24.8113 19.2524 26.1738 20.2979 26.3693 21.7831L27.0331 26.8254L2.83036 30.0117L2.16654 24.9695Z" fill="#EEEEEE"/>
<rect x="31.2812" y="20.1094" width="1.01715" height="3.3905" rx="0.508575" transform="rotate(82.5 31.2812 20.1094)" fill="#999999"/>
<rect x="21.9922" y="14.4922" width="1.01715" height="3.3905" rx="0.508575" transform="rotate(-7.5 21.9922 14.4922)" fill="#999999"/>
<rect x="27.9492" y="15.418" width="1.01715" height="3.3905" rx="0.508575" transform="rotate(37.5 27.9492 15.418)" fill="#999999"/>
<rect x="5.36328" y="31.0449" width="19.6649" height="1.3562" rx="0.6781" transform="rotate(-7.5 5.36328 31.0449)" fill="#DCDCDC"/>
<rect x="6.24609" y="37.7676" width="19.6649" height="1.3562" rx="0.6781" transform="rotate(-7.5 6.24609 37.7676)" fill="#DCDCDC"/>
<rect x="7.13281" y="44.4932" width="19.6649" height="1.3562" rx="0.6781" transform="rotate(-7.5 7.13281 44.4932)" fill="#DCDCDC"/>
<rect x="5.71484" y="33.7344" width="7.12005" height="1.3562" rx="0.6781" transform="rotate(-7.5 5.71484 33.7344)" fill="#EEEEEE"/>
<rect x="6.59766" y="40.457" width="7.12005" height="1.3562" rx="0.6781" transform="rotate(-7.5 6.59766 40.457)" fill="#EEEEEE"/>
<rect x="7.48438" y="47.1797" width="7.12005" height="1.3562" rx="0.6781" transform="rotate(-7.5 7.48438 47.1797)" fill="#EEEEEE"/>
</svg>
