<svg width="56" height="56" viewBox="0 0 56 56" fill="none" xmlns="http://www.w3.org/2000/svg">
<rect x="4" y="4" width="48" height="48" rx="24" fill="#7CC9B1"/>
<rect x="4" y="4" width="48" height="48" rx="24" stroke="#7CC9B1" stroke-opacity="0.5" stroke-width="8"/>
<path d="M21.3347 30.5013C21.3347 33.2655 23.5705 35.5013 26.3347 35.5013L25.6205 34.073M34.668 25.5013C34.668 22.7371 32.4322 20.5013 29.668 20.5013L30.3822 21.9296M21.1589 25.5321C20.5689 25.8513 19.0239 26.503 19.9647 27.318C20.4247 27.7163 20.9372 28.0013 21.5814 28.0013H25.2555C25.8989 28.0013 26.4114 27.7163 26.8714 27.318C27.813 26.503 26.2672 25.8513 25.6772 25.5321C24.2947 24.7838 22.5414 24.7838 21.1589 25.5321ZM25.293 21.5621C25.2943 21.8096 25.2469 22.0549 25.1533 22.284C25.0598 22.5131 24.922 22.7215 24.7479 22.8974C24.5738 23.0732 24.3667 23.213 24.1385 23.3088C23.9103 23.4045 23.6655 23.4544 23.418 23.4555C23.1706 23.4544 22.9257 23.4045 22.6976 23.3088C22.4694 23.213 22.2623 23.0732 22.0882 22.8974C21.914 22.7215 21.7762 22.5131 21.6827 22.284C21.5892 22.0549 21.5417 21.8096 21.543 21.5621C21.5416 21.3146 21.589 21.0692 21.6825 20.84C21.776 20.6108 21.9137 20.4023 22.0879 20.2264C22.262 20.0504 22.4691 19.9106 22.6974 19.8148C22.9256 19.7189 23.1705 19.6691 23.418 19.668C23.6656 19.6691 23.9105 19.7189 24.1387 19.8148C24.3669 19.9106 24.5741 20.0504 24.7482 20.2264C24.9223 20.4023 25.0601 20.6108 25.1536 20.84C25.2471 21.0692 25.2945 21.3146 25.293 21.5621ZM30.3255 33.8655C29.7355 34.1846 28.1905 34.8363 29.1314 35.6513C29.5914 36.0496 30.1039 36.3346 30.748 36.3346H34.4222C35.0655 36.3346 35.578 36.0496 36.038 35.6513C36.9797 34.8363 35.4339 34.1846 34.8439 33.8655C33.4614 33.1171 31.708 33.1171 30.3255 33.8655ZM34.4597 29.8955C34.4611 30.143 34.4137 30.3884 34.3202 30.6176C34.2268 30.8468 34.089 31.0553 33.9149 31.2312C33.7407 31.4072 33.5336 31.547 33.3054 31.6429C33.0771 31.7387 32.8322 31.7885 32.5847 31.7896C32.3372 31.7885 32.0923 31.7387 31.864 31.6429C31.6358 31.547 31.4287 31.4072 31.2545 31.2312C31.0804 31.0553 30.9426 30.8468 30.8491 30.6176C30.7557 30.3884 30.7083 30.143 30.7097 29.8955C30.7083 29.6479 30.7557 29.4025 30.8491 29.1733C30.9426 28.9441 31.0804 28.7356 31.2545 28.5597C31.4287 28.3838 31.6358 28.2439 31.864 28.1481C32.0923 28.0523 32.3372 28.0024 32.5847 28.0013C32.8322 28.0024 33.0771 28.0523 33.3054 28.1481C33.5336 28.2439 33.7407 28.3838 33.9149 28.5597C34.089 28.7356 34.2268 28.9441 34.3202 29.1733C34.4137 29.4025 34.4611 29.6479 34.4597 29.8955Z" stroke="#070D17" stroke-width="0.625" stroke-linecap="round" stroke-linejoin="round"/>
</svg>
