<svg width="14" height="8" viewBox="0 0 14 8" fill="none" xmlns="http://www.w3.org/2000/svg">
<path d="M6.47 0.469178C6.61063 0.328727 6.80125 0.249837 7 0.249837C7.19875 0.249837 7.38937 0.328727 7.53 0.469178L10 2.93918L12.47 0.469178C12.5387 0.395491 12.6215 0.336388 12.7135 0.295396C12.8055 0.254404 12.9048 0.232362 13.0055 0.230585C13.1062 0.228809 13.2062 0.247334 13.2996 0.285055C13.393 0.322776 13.4778 0.378921 13.549 0.450139C13.6203 0.521358 13.6764 0.606191 13.7141 0.69958C13.7518 0.792968 13.7704 0.892997 13.7686 0.993699C13.7668 1.0944 13.7448 1.19372 13.7038 1.28572C13.6628 1.37771 13.6037 1.46052 13.53 1.52918L10.53 4.52918C10.3894 4.66963 10.1988 4.74852 10 4.74852C9.80125 4.74852 9.61063 4.66963 9.47 4.52918L7 2.05918L2.81 6.24918H4.5C4.69891 6.24918 4.88968 6.3282 5.03033 6.46885C5.17098 6.6095 5.25 6.80027 5.25 6.99918C5.25 7.19809 5.17098 7.38885 5.03033 7.52951C4.88968 7.67016 4.69891 7.74918 4.5 7.74918H1C0.801088 7.74918 0.610322 7.67016 0.46967 7.52951C0.329018 7.38885 0.25 7.19809 0.25 6.99918V3.49918C0.25 3.30027 0.329018 3.1095 0.46967 2.96885C0.610322 2.8282 0.801088 2.74918 1 2.74918C1.19891 2.74918 1.38968 2.8282 1.53033 2.96885C1.67098 3.1095 1.75 3.30027 1.75 3.49918V5.18918L6.47 0.469178Z" fill="#940803"/>
</svg>
